<?xml version="1.0" encoding="UTF-8"?>
<svg version="1.1" xmlns="http://www.w3.org/2000/svg" width="1024" height="1024">
<path d="M0 0 C1.32 0 2.64 0 4 0 C4.33 1.32 4.66 2.64 5 4 C5.99 3.92136719 6.98 3.84273438 8 3.76171875 C13.22071554 3.56583438 18.23207605 3.38922484 22.28515625 7.08203125 C23.96741547 9.8438942 25.4251249 12.64458628 26.80224609 15.56933594 C28.84249053 19.70970969 31.1637177 23.69258192 33.43920898 27.70703125 C35.85899089 31.97956835 38.23723011 36.27463889 40.61474609 40.57080078 C41.67122294 42.42345228 42.81698418 44.22547627 44 46 C50.27263308 36.10006153 56.09893682 25.94780971 61.89477539 15.76416016 C62.52504639 14.66249512 63.15531738 13.56083008 63.8046875 12.42578125 C64.37171387 11.42973877 64.93874023 10.43369629 65.52294922 9.4074707 C67 7 67 7 69 5 C77.91 5 86.82 5 96 5 C96 43.61 96 82.22 96 122 C87.09 122 78.18 122 69 122 C68.67 100.88 68.34 79.76 68 58 C64.04 65.26 60.08 72.52 56 80 C53.78657741 83.67537455 51.5919089 87.2917514 49.25 90.875 C48.73179687 91.68195313 48.21359375 92.48890625 47.6796875 93.3203125 C46.45975478 95.21798563 45.23362721 97.11121492 44 99 C41.02163932 96.35687107 39.18457012 93.25269558 37.12890625 89.86328125 C36.76530502 89.26501022 36.4017038 88.6667392 36.02708435 88.05033875 C35.25938672 86.78489869 34.49381168 85.51816881 33.73022461 84.25024414 C32.57505018 82.33332601 31.41212752 80.42128521 30.24804688 78.50976562 C26.56462462 72.42725769 23.18949253 66.37898505 20 60 C19.67 80.46 19.34 100.92 19 122 C9.76 122 0.52 122 -9 122 C-8.44989599 100.27089179 -8.44989599 100.27089179 -4.984375 93.1640625 C0.74694501 80.56425582 -0.84788535 63.74558802 -0.68359375 50.1953125 C-0.66295109 48.73558056 -0.64195315 47.27585361 -0.62062073 45.81613159 C-0.566153 42.02533073 -0.51642085 38.23448294 -0.46777344 34.44360352 C-0.4169984 30.55480919 -0.36160862 26.66608067 -0.30664062 22.77734375 C-0.19998421 15.18495199 -0.09834502 7.59250446 0 0 Z " fill="#003385" transform="translate(716,402)"/>
<path d="M0 0 C63.10811367 0 63.10811367 0 78.64453125 14.62109375 C91.32115578 27.42385385 95.84545424 43.07277407 96.05419922 60.75537109 C95.63637598 78.05927591 88.69342689 92.81311479 76.3125 104.75 C55.54082632 122.11446238 24.24674509 117 0 117 C0 78.39 0 39.78 0 0 Z M27 29 C27 48.47 27 67.94 27 88 C44.97893815 88.81969326 44.97893815 88.81969326 59.3984375 80.78125 C65.28243523 74.23709643 67.55439665 66.70040546 68 58 C67.55507984 49.75785397 65.03342406 42.21429509 59.2578125 36.1796875 C49.50905726 27.51877619 40.42311363 29 27 29 Z " fill="#003385" transform="translate(444,407)"/>
<path d="M0 0 C13.86 0.495 13.86 0.495 28 1 C28.01981934 2.94696777 28.03963867 4.89393555 28.06005859 6.89990234 C28.12810256 13.36599896 28.20489722 19.83194649 28.28752708 26.29787254 C28.33726174 30.21433413 28.38359175 34.13077169 28.421875 38.04736328 C28.45901881 41.83411305 28.50545323 45.62064978 28.55806351 49.40721512 C28.57645424 50.84469452 28.59161733 52.28221931 28.60334396 53.71976852 C28.60836041 71.99070207 28.60836041 71.99070207 37.375 87.375 C42.32120694 90.43693763 46.34069849 91.48953918 52.046875 90.53125 C56.75893123 89.24957071 59.78058809 86.72858156 62.25 82.625 C65.22735946 77.11427328 66.25314987 71.95076262 66.31884766 65.70947266 C66.32889328 65.00633942 66.3389389 64.30320618 66.34928894 63.57876587 C66.37997493 61.27387243 66.39711497 58.96909436 66.4140625 56.6640625 C66.43278593 55.05837013 66.45236021 53.45268748 66.4727478 51.84701538 C66.52395101 47.6352513 66.56363969 43.42345536 66.60089111 39.21154785 C66.64100506 34.90787959 66.6920636 30.60434251 66.7421875 26.30078125 C66.83880691 17.86727074 66.92224378 9.43370554 67 1 C76.24 1 85.48 1 95 1 C95.0909549 10.63282382 95.16408908 20.26535491 95.20724869 29.89851379 C95.22798002 34.37326214 95.25602749 38.84769739 95.30175781 43.32226562 C95.3457389 47.65358484 95.36924525 51.98460603 95.37950897 56.31613159 C95.3868079 57.95527834 95.40105571 59.59441179 95.42292023 61.23342896 C95.64540152 78.62880782 93.04137977 96.09373604 80.75 109.44140625 C71.15421578 117.98765157 60.02703911 120.5251243 47.5 120.375 C46.53191406 120.38660156 45.56382812 120.39820313 44.56640625 120.41015625 C32.92835876 120.36329163 23.81264119 117.10150954 15.12890625 109.32421875 C0.91828497 94.54390664 -0.49515255 74.83674474 -0.29296875 55.46875 C-0.28735359 53.85494385 -0.28309261 52.24113249 -0.28010559 50.62731934 C-0.26880756 46.4385087 -0.23947578 42.25002451 -0.20599365 38.06134033 C-0.17496263 33.76359469 -0.16153067 29.46579481 -0.14648438 25.16796875 C-0.11458677 16.77848143 -0.06194779 8.38931928 0 0 Z " fill="#003385" transform="translate(333,406)"/>
<path d="M0 0 C1.74506836 0.00966797 1.74506836 0.00966797 3.52539062 0.01953125 C4.74033203 0.03628906 5.95527344 0.05304688 7.20703125 0.0703125 C8.43357422 0.07933594 9.66011719 0.08835937 10.92382812 0.09765625 C13.95593395 0.1212524 16.98760231 0.15587511 20.01953125 0.1953125 C23.61367302 8.61064983 26.89499061 17.10450369 30.01171875 25.70703125 C30.47961216 26.99200438 30.94776372 28.27688354 31.41615295 29.56167603 C32.65682539 32.96685919 33.89421299 36.37322658 35.1308403 39.77988052 C36.41301166 43.31052229 37.69788711 46.84017949 38.98266602 50.36987305 C39.49928798 51.78925899 40.0159048 53.20864681 40.53251648 54.6280365 C40.78774267 55.32926069 41.04296886 56.03048489 41.30592918 56.7529583 C42.07699856 58.87190447 42.84766128 60.99099817 43.61824036 63.11012268 C46.68528824 71.54285273 49.76744107 79.96984567 52.8671875 88.390625 C53.22462036 89.36262344 53.58205322 90.33462189 53.95031738 91.33607483 C55.9331702 96.72839943 55.9331702 96.72839943 57.92205811 102.11849976 C58.79977104 104.49335399 59.67372753 106.86955801 60.546875 109.24609375 C60.80195328 109.93256989 61.05703156 110.61904602 61.31983948 111.32632446 C63.01953125 115.9677716 63.01953125 115.9677716 63.01953125 118.1953125 C53.11953125 118.1953125 43.21953125 118.1953125 33.01953125 118.1953125 C25.01953125 98.9953125 25.01953125 98.9953125 25.01953125 95.1953125 C12.80953125 95.1953125 0.59953125 95.1953125 -11.98046875 95.1953125 C-12.31046875 96.8453125 -12.64046875 98.4953125 -12.98046875 100.1953125 C-13.74474193 102.96470663 -14.66699889 105.66812875 -15.60546875 108.3828125 C-15.82847656 109.10662109 -16.05148438 109.83042969 -16.28125 110.57617188 C-17.01281592 112.65668343 -17.7289341 114.37823433 -18.98046875 116.1953125 C-23.99132713 118.52222216 -29.05306356 118.47504926 -34.48046875 118.3828125 C-35.56134766 118.3818457 -35.56134766 118.3818457 -36.6640625 118.38085938 C-41.187257 118.34405219 -45.49924964 117.87228992 -49.98046875 117.1953125 C-44.41675531 100.15253812 -38.46428606 83.27659348 -32.29296875 66.4453125 C-30.52875329 61.62413432 -28.76611968 56.80237901 -27.00390625 51.98046875 C-26.57272995 50.80164627 -26.14155365 49.62282379 -25.6973114 48.40827942 C-23.05820403 41.18254076 -20.45765776 33.94441891 -17.89453125 26.69140625 C-17.29265179 24.99508527 -16.69068592 23.29879495 -16.08862305 21.60253906 C-15.2597509 19.26642922 -14.43419206 16.92944978 -13.61978149 14.58825684 C-12.89318545 12.49967889 -12.1549387 10.41557717 -11.4140625 8.33203125 C-11.01243896 7.18436279 -10.61081543 6.03669434 -10.19702148 4.85424805 C-7.93520845 -0.08924096 -4.95300885 -0.04832204 0 0 Z M6.01953125 41.1953125 C4.51176509 45.29666815 3.01465549 49.40183317 1.51953125 53.5078125 C1.09027344 54.67505859 0.66101563 55.84230469 0.21875 57.04492188 C-0.18730469 58.16318359 -0.59335937 59.28144531 -1.01171875 60.43359375 C-1.38876953 61.46524658 -1.76582031 62.49689941 -2.15429688 63.55981445 C-3.13003149 66.21209312 -3.13003149 66.21209312 -2.98046875 69.1953125 C3.61953125 69.5253125 10.21953125 69.8553125 17.01953125 70.1953125 C15.19007657 63.79222112 13.14009811 57.48506652 10.95703125 51.1953125 C10.69970215 50.4412915 10.44237305 49.68727051 10.17724609 48.91040039 C8.72697821 44.68233447 8.72697821 44.68233447 6.01953125 41.1953125 Z " fill="#003385" transform="translate(265.98046875,406.8046875)"/>
<path d="M0 0 C1.32 0.33 2.64 0.66 4 1 C3.99555878 1.8495224 3.99111755 2.6990448 3.98654175 3.5743103 C3.94611833 11.66256975 3.91584206 19.75079425 3.89637566 27.83913231 C3.88603072 31.99533852 3.8720462 36.15145982 3.84912109 40.30761719 C3.82705511 44.33418206 3.815362 48.36066637 3.81024551 52.38728714 C3.80660922 53.90752045 3.79951327 55.4277504 3.78853989 56.94794846 C3.44070475 88.49980373 3.44070475 88.49980373 16.734375 115.83984375 C19.73568278 118.56539035 21.96607962 120.22322758 26 121 C25.55269531 120.62230469 25.10539063 120.24460937 24.64453125 119.85546875 C13.49550772 109.70486524 11.09981418 94.67844368 10.15625 80.24438477 C9.75931326 71.54619675 10.13908738 62.82354713 10.375 54.125 C10.42474683 52.11630093 10.47414286 50.10759315 10.52319336 48.09887695 C10.86724982 34.3928125 11.31458704 20.6936759 12 7 C13.65 7.66 15.3 8.32 17 9 C16.99333817 10.18032303 16.99333817 10.18032303 16.98654175 11.38449097 C16.94608286 18.88411006 16.91582469 26.38367453 16.89637566 33.88337517 C16.88603989 37.73691424 16.87207328 41.59036144 16.84912109 45.44384766 C14.93086669 81.89702287 14.93086669 81.89702287 28.234375 114.3671875 C35.99425328 121.54335813 48.3680825 126.78930343 59 127.625 C69.63179001 126.78564816 80.48390756 121.98114942 87.66796875 114.19140625 C104.35998704 93.70762084 99.1429541 59.09215503 99.0625 34.625 C99.05688545 31.93099106 99.05283974 29.2369805 99.04882812 26.54296875 C99.03795665 20.02862529 99.02134303 13.51431714 99 7 C100.65 7.33 102.3 7.66 104 8 C104.57538836 28.2870304 105.10359659 48.57676095 105.17724609 68.87277222 C105.18400507 70.52214327 105.19417853 72.17150437 105.20800781 73.8208313 C105.33977738 90.75473814 104.45820542 107.25206887 92 120 C100.53365801 115.13250089 105.52248248 109.41789268 108.66015625 100.0234375 C110.7570861 92.22596503 111.14466276 84.21140911 111.20532227 76.17553711 C111.21522186 75.34516937 111.22512146 74.51480164 111.23532104 73.65927124 C111.26659393 70.9486565 111.29155626 68.23802431 111.31640625 65.52734375 C111.33700543 63.63448158 111.35800262 61.7416237 111.37937927 59.84877014 C111.4342941 54.89229838 111.48383692 49.93578723 111.53222656 44.97924805 C111.58266644 39.91126037 111.63823455 34.84332913 111.69335938 29.77539062 C111.8005662 19.85030876 111.90209271 9.92517766 112 0 C113.65 0.66 115.3 1.32 117 2 C118.0969476 48.20600043 118.0969476 48.20600043 118.17724609 66.91607666 C118.18712161 68.92309804 118.20664984 70.93006483 118.2265625 72.93701172 C118.2430348 88.75247625 117.76540092 107.05672045 106 119 C92.86094149 130.20754537 78.26862595 134.36807505 61.38378906 134.31567383 C59.26834876 134.31252729 57.15432938 134.33598233 55.0390625 134.36132812 C40.7309482 134.43037353 29.35021993 131.06167382 17 124 C16.28714844 123.59523438 15.57429687 123.19046875 14.83984375 122.7734375 C5.02484569 115.84257327 0.53918707 99.70053897 -1.43652344 88.5324707 C-1.77952888 86.02328922 -2.03574061 83.52344758 -2.25 81 C-2.3322583 80.03707031 -2.4145166 79.07414062 -2.49926758 78.08203125 C-3.4057543 65.32186847 -2.78001719 52.54646622 -2.26443481 39.78126526 C-2.05128704 34.49944911 -1.88188659 29.21773627 -1.73828125 23.93359375 C-1.69777165 22.48892951 -1.65716488 21.04426799 -1.61645508 19.59960938 C-1.55823145 17.53250532 -1.50073365 15.46540304 -1.44638062 13.39819336 C-1.39583525 11.51403411 -1.33871531 9.63005464 -1.28125 7.74609375 C-1.25095703 6.68060303 -1.22066406 5.6151123 -1.18945312 4.51733398 C-1 2 -1 2 0 0 Z " fill="#003386" transform="translate(591,392)"/>
<path d="M0 0 C9.24 0 18.48 0 28 0 C28 38.94 28 77.88 28 118 C18.76 118.33 9.52 118.66 0 119 C0 79.73 0 40.46 0 0 Z " fill="#003384" transform="translate(553,406)"/>
<path d="M0 0 C2.475 0.99 2.475 0.99 5 2 C4.99555878 2.74343155 4.99111755 3.4868631 4.98654175 4.25282288 C4.94613961 11.32660313 4.91585257 18.40034209 4.89637566 25.47420597 C4.88602516 29.10923832 4.87202996 32.74417378 4.84912109 36.37915039 C4.82707558 39.89996198 4.81536612 43.42068155 4.81024551 46.94155693 C4.80485816 48.91029271 4.78929887 50.8789925 4.77340698 52.84767151 C4.77169231 66.92438791 5.24729655 82.35466521 14 94 C14 94.66 14 95.32 14 96 C14.52335938 96.26167969 15.04671875 96.52335937 15.5859375 96.79296875 C17.4328877 97.71644385 19.26961476 98.66039155 21.1015625 99.61328125 C28.8948257 103.58152187 28.8948257 103.58152187 37.375 103.125 C38.93865219 102.46662013 40.48250938 101.75874531 42 101 C42.7425 100.690625 43.485 100.38125 44.25 100.0625 C51.20753589 96.99299887 54.25749756 92.3018294 57.12109375 85.41796875 C63.66763403 67.40770905 61.12993982 45.12820943 61.0625 26.3125 C61.05747069 23.84570404 61.05291033 21.37890708 61.04882812 18.91210938 C61.03794577 12.94138392 61.02132305 6.97069683 61 1 C62.32 1 63.64 1 65 1 C66.2377857 19.10755384 67.21133382 37.20488234 67.29956055 55.35861206 C67.30807697 57.01483556 67.32161427 58.67104211 67.34057617 60.32717896 C67.487028 74.5676258 67.01631997 89.10702709 57.6484375 100.66796875 C51.9014685 106.40020193 42.53299049 110.1780062 34.5546875 111.36328125 C25.91157295 110.88675973 13.53581636 105.88944562 7.35546875 99.8203125 C-2.06362845 87.17103499 -2.19794429 70.40318932 -2.1875 55.3125 C-2.18814453 54.29808838 -2.18878906 53.28367676 -2.18945312 52.23852539 C-2.07840821 34.81330654 -0.94854677 17.39549012 0 0 Z " fill="#003386" transform="translate(616,406)"/>
<path d="M0 0 C12 0 12 0 15.2890625 3.28125 C16.11220727 4.66192414 16.89071884 6.07008407 17.625 7.5 C19.05494637 10.01942932 20.51363339 12.51285268 22 15 C22.66 15 23.32 15 24 15 C25.90466639 11.81290883 27.79202311 8.63527078 29.48828125 5.33203125 C30.7109375 3.28125 30.7109375 3.28125 34 0 C37.96 0 41.92 0 46 0 C46 13.86 46 27.72 46 42 C42.37 42 38.74 42 35 42 C35 34.08 35 26.16 35 18 C31.46503392 23.21724824 31.46503392 23.21724824 27.93994141 28.44116211 C27.49827637 29.08835205 27.05661133 29.73554199 26.6015625 30.40234375 C25.92601318 31.39995728 25.92601318 31.39995728 25.23681641 32.41772461 C24 34 24 34 22 35 C21.45730469 34.18015625 20.91460938 33.3603125 20.35546875 32.515625 C19.64003906 31.43796875 18.92460938 30.3603125 18.1875 29.25 C17.47980469 28.18265625 16.77210938 27.1153125 16.04296875 26.015625 C14.42764776 23.63125061 12.72801074 21.30401432 11 19 C11 26.59 11 34.18 11 42 C7.37 42 3.74 42 0 42 C0 28.14 0 14.28 0 0 Z " fill="#003385" transform="translate(613,545)"/>
<path d="M0 0 C12 0 12 0 14.81640625 2.23046875 C15.39261719 3.20628906 15.96882812 4.18210937 16.5625 5.1875 C17.46162109 6.63189453 17.46162109 6.63189453 18.37890625 8.10546875 C18.91386719 9.06066406 19.44882812 10.01585937 20 11 C20.99866153 12.66746902 21.99820943 14.33440899 23 16 C25.12266528 13.44813647 27.03168817 10.94770393 28.75390625 8.10546875 C29.64916016 6.66107422 29.64916016 6.66107422 30.5625 5.1875 C31.14128906 4.21167969 31.72007812 3.23585938 32.31640625 2.23046875 C35 0 35 0 46 0 C46 13.86 46 27.72 46 42 C42.7 42 39.4 42 36 42 C35.67 34.41 35.34 26.82 35 19 C31.37 24.28 27.74 29.56 24 35 C18.62585403 29.62585403 15.12096328 24.356062 11 18 C11 25.92 11 33.84 11 42 C7.37 42 3.74 42 0 42 C0 28.14 0 14.28 0 0 Z " fill="#003385" transform="translate(764,545)"/>
<path d="M0 0 C5.37939148 4.72336813 9.02276994 9.07437421 9.78125 16.34765625 C10.04600099 22.778899 9.17426738 28.32113062 4.79296875 33.234375 C-1.98240084 39.5045067 -8.13144743 40.72205671 -17.2421875 40.56640625 C-24.19407983 39.87801593 -28.99592135 36.57989438 -33.4375 31.25 C-36.85716871 25.87623489 -38.16171878 20.16854092 -37 13.8828125 C-35.29282085 8.12108287 -32.7456677 3.38253786 -27.546875 0.03125 C-18.60717761 -4.74568754 -9.06358462 -4.61418853 0 0 Z M-22.4375 8.25 C-25.55476391 11.52312711 -26.71532417 14.25723457 -27.0625 18.6875 C-26.86924034 23.25615825 -25.1064155 25.66982347 -22.04296875 28.9375 C-18.89919834 31.50758968 -15.44502812 31.5959564 -11.5 31.5234375 C-7.96607725 31.05492501 -6.04179934 29.61203894 -3.4375 27.25 C-1.2088087 23.43965682 -0.42382716 21.04302462 -0.5 16.625 C-1.58264467 12.72747917 -2.42497615 10.96127147 -5.4375 8.25 C-11.47752512 4.96841155 -16.56382563 4.39167214 -22.4375 8.25 Z " fill="#003386" transform="translate(309.4375,547.75)"/>
<path d="M0 0 C0.99 1.32 1.98 2.64 3 4 C1.02 6.64 -0.96 9.28 -3 12 C-4.19625 11.030625 -5.3925 10.06125 -6.625 9.0625 C-10.08913057 6.48879736 -12.54913706 4.90324211 -17 5 C-21.1096697 6.53105342 -23.92858294 8.07520977 -26 12 C-27.48461741 17.62033735 -26.82124737 20.94121162 -24 26 C-21.01281279 28.79927304 -19.05843085 29.37373265 -15 29.25 C-14.154375 29.23453125 -13.30875 29.2190625 -12.4375 29.203125 C-10.18144231 29.01512019 -8.17149996 28.62330092 -6 28 C-6 26.35 -6 24.7 -6 23 C-9.3 23 -12.6 23 -16 23 C-16 20.03 -16 17.06 -16 14 C-9.4 14 -2.8 14 4 14 C4 20.27 4 26.54 4 33 C-5.47302533 37.79802581 -13.59786577 41.24960368 -24.421875 38.3515625 C-30.69159103 35.50831918 -34.87646891 30.85989731 -37.375 24.5 C-38.61967443 17.52982317 -38.37397103 11.31366856 -35 5 C-25.65891474 -5.45170262 -11.90332629 -8.48313978 0 0 Z " fill="#003386" transform="translate(254,549)"/>
<path d="M0 0 C5.4759375 -0.0928125 5.4759375 -0.0928125 11.0625 -0.1875 C12.76805054 -0.22846802 12.76805054 -0.22846802 14.50805664 -0.27026367 C21.67248473 -0.32883878 26.7342236 0.24987251 32.375 5 C35.3038464 8.60473403 35.33272157 12.1874001 35.2890625 16.640625 C34.81122844 20.54078411 33.30736949 22.83560756 31 26 C30.01 26.33 29.02 26.66 28 27 C28.5775 27.99902344 29.155 28.99804688 29.75 30.02734375 C30.50011259 31.33066437 31.25010648 32.63405332 32 33.9375 C32.3815625 34.59685547 32.763125 35.25621094 33.15625 35.93554688 C36 40.88671875 36 40.88671875 36 42 C31.79638576 42.74546853 28.16401342 43.06192804 24 42 C21.65821688 39.0727711 20.21278545 36.11549979 18.6015625 32.73828125 C17.28274429 29.92240945 17.28274429 29.92240945 15.0234375 28.98046875 C12.88186766 28.66344869 12.88186766 28.66344869 10 29 C10 33.29 10 37.58 10 42 C6.7 42 3.4 42 0 42 C0 28.14 0 14.28 0 0 Z M10 9 C10 12.63 10 16.26 10 20 C17.3249429 20.73061649 17.3249429 20.73061649 23.6875 18 C24.120625 17.34 24.55375 16.68 25 16 C24.22520264 13.00847418 24.22520264 13.00847418 23 10 C19.98509443 8.99503148 17.95818308 8.89664697 14.8125 8.9375 C12.4303125 8.9684375 12.4303125 8.9684375 10 9 Z " fill="#003385" transform="translate(510,545)"/>
<path d="M0 0 C1.32 0.33 2.64 0.66 4 1 C7.17726242 18.34798646 7.51444198 37.46466533 6.8125 55.0625 C6.78236816 55.93898193 6.75223633 56.81546387 6.72119141 57.71850586 C6.26131464 65.99386719 4.5162189 74.58925912 -1 81 C-3.53034566 82.98339321 -6.1443741 84.53154721 -9 86 C-10.0725 86.556875 -11.145 87.11375 -12.25 87.6875 C-18.28024599 88.1900205 -23.07342581 85.32839075 -28 82 C-37.26058405 71.79576404 -37.35456694 57.01210231 -37.25 43.9375 C-37.24613281 42.74608398 -37.24226562 41.55466797 -37.23828125 40.32714844 C-37.11719713 27.50904904 -36.15179457 14.76163882 -35 2 C-33.68 1.67 -32.36 1.34 -31 1 C-30.99413376 1.64542755 -30.98826752 2.2908551 -30.98222351 2.95584106 C-30.91776072 9.73824991 -30.83321201 16.52020718 -30.73754883 23.30224609 C-30.7045119 25.82562262 -30.67641559 28.34906927 -30.65356445 30.87255859 C-31.52041498 55.33689654 -31.52041498 55.33689654 -22 77 C-20.07636816 78.84650509 -18.14633368 80.40272842 -16 82 C-10.51175523 79.36419823 -6.2506924 76.81218561 -3.6953125 71.06640625 C-0.25597897 60.40949325 0.15160017 49.98721317 0.09765625 38.8671875 C0.09553383 37.19041428 0.09553383 37.19041428 0.09336853 35.47976685 C0.08781622 31.94481617 0.07527279 28.40993121 0.0625 24.875 C0.05747883 22.46354259 0.05291701 20.05208417 0.04882812 17.640625 C0.03786246 11.76039463 0.02117253 5.88020201 0 0 Z " fill="#003386" transform="translate(664,419)"/>
<path d="M0 0 C10.56 0 21.12 0 32 0 C32 2.97 32 5.94 32 9 C24.74 9 17.48 9 10 9 C10.33 10.98 10.66 12.96 11 15 C17.6 15.33 24.2 15.66 31 16 C31 18.64 31 21.28 31 24 C24.07 24 17.14 24 10 24 C10 26.97 10 29.94 10 33 C17.59 33 25.18 33 33 33 C33 35.97 33 38.94 33 42 C22.11 42 11.22 42 0 42 C0 28.14 0 14.28 0 0 Z " fill="#003384" transform="translate(563,545)"/>
<path d="M0 0 C1.64574566 -0.02688151 3.29161413 -0.04634123 4.9375 -0.0625 C5.85402344 -0.07410156 6.77054688 -0.08570313 7.71484375 -0.09765625 C10 0 10 0 11 1 C11.06267481 2.37229768 11.05942943 3.74774035 11.02734375 5.12109375 C11.01348633 5.97010254 10.99962891 6.81911133 10.98535156 7.69384766 C10.96956055 8.59925293 10.95376953 9.5046582 10.9375 10.4375 C10.45309269 20.98183853 10.45309269 20.98183853 13 31 C16.60367736 33.3822204 19.74308139 33.30959408 24 33 C27.24849977 31.27773504 27.24849977 31.27773504 28 28 C28.15070797 25.86338742 28.2485966 23.72287876 28.31640625 21.58203125 C28.35830078 20.32841797 28.40019531 19.07480469 28.44335938 17.78320312 C28.48267578 16.47287109 28.52199219 15.16253906 28.5625 13.8125 C28.60570992 12.47720022 28.649325 11.14191348 28.69335938 9.80664062 C28.79956502 6.53786703 28.90160997 3.26901667 29 0 C32.3 0 35.6 0 39 0 C39.09932276 4.44736742 39.17168003 8.89413713 39.21972656 13.34228516 C39.23976791 14.85346736 39.26700905 16.36457272 39.30175781 17.87548828 C39.35061109 20.05520643 39.37304224 22.23389431 39.390625 24.4140625 C39.41157227 25.7232666 39.43251953 27.0324707 39.45410156 28.38134766 C38.78092258 33.74578792 36.38051656 36.75416798 32.4375 40.3125 C26.69404624 44.28873722 19.71184626 43.5454322 13 43 C8.07315603 41.48404801 4.76184061 38.29619651 2 34 C0.25440491 29.61769093 -0.23845851 25.99197799 -0.1953125 21.2890625 C-0.18886719 20.04511719 -0.18242188 18.80117188 -0.17578125 17.51953125 C-0.15902344 16.23433594 -0.14226563 14.94914063 -0.125 13.625 C-0.11597656 12.31660156 -0.10695313 11.00820313 -0.09765625 9.66015625 C-0.07415085 6.4399163 -0.04129087 3.22005293 0 0 Z " fill="#003385" transform="translate(707,545)"/>
<path d="M0 0 C3.3 0 6.6 0 10 0 C12.40675865 5.4792084 14.80940076 10.96019611 17.20825195 16.44287109 C18.0248313 18.3076237 18.84253184 20.17188575 19.66137695 22.03564453 C20.8384057 24.71518723 22.01138646 27.39647022 23.18359375 30.078125 C23.55028671 30.91055725 23.91697968 31.7429895 24.29478455 32.60064697 C24.6350618 33.38115417 24.97533905 34.16166138 25.32592773 34.96582031 C25.6257103 35.64976868 25.92549286 36.33371704 26.23435974 37.03839111 C27.00233693 39.00598733 27.53443413 40.94181468 28 43 C26.06206134 42.99399089 24.12422199 42.94392249 22.1875 42.875 C20.56908203 42.84019531 20.56908203 42.84019531 18.91796875 42.8046875 C17.95503906 42.53914062 16.99210937 42.27359375 16 42 C15.01 40.02 14.02 38.04 13 36 C7.39 35.67 1.78 35.34 -4 35 C-4.66 37.31 -5.32 39.62 -6 42 C-9.96 42 -13.92 42 -18 42 C-17.3709375 40.56011719 -16.741875 39.12023437 -16.09375 37.63671875 C-10.63759444 25.12865872 -5.26004571 12.59178539 0 0 Z M4 15 C2.68 18.63 1.36 22.26 0 26 C3.3 26 6.6 26 10 26 C8.68 22.37 7.36 18.74 6 15 C5.34 15 4.68 15 4 15 Z " fill="#003286" transform="translate(391,545)"/>
<path d="M0 0 C3.485625 -0.061875 6.97125 -0.12375 10.5625 -0.1875 C12.18973999 -0.22846802 12.18973999 -0.22846802 13.84985352 -0.27026367 C20.87208658 -0.33033797 25.84709222 0.34491977 31.375 5 C34.47810556 8.81920685 34.33910492 12.78165769 34.27734375 17.49609375 C33.86265651 21.23996028 32.50322623 23.23327627 30 26 C23.40226764 31.19395952 18.07124508 31.12046634 10 31 C10 34.96 10 38.92 10 43 C6.7 42.67 3.4 42.34 0 42 C0 28.14 0 14.28 0 0 Z M10 9 C10 12.96 10 16.92 10 21 C14.69475367 21.92053993 17.72807938 22.31904262 22 20 C22.66 19.34 23.32 18.68 24 18 C23.99510849 14.46537413 23.99510849 14.46537413 23 11 C18.89937451 8.17512466 14.79486999 8.85897441 10 9 Z " fill="#003385" transform="translate(461,545)"/>
<path d="M0 0 C4.94791294 -0.0246826 9.8957902 -0.04285166 14.84375 -0.05493164 C16.52767562 -0.05996653 18.21159686 -0.06679481 19.89550781 -0.07543945 C22.31316203 -0.08754196 24.73075856 -0.09323668 27.1484375 -0.09765625 C27.9036972 -0.10281754 28.65895691 -0.10797882 29.43710327 -0.11329651 C34.77225659 -0.11387171 34.77225659 -0.11387171 37 1 C37 3.64 37 6.28 37 9 C32.71 9 28.42 9 24 9 C24 19.89 24 30.78 24 42 C20.7 42 17.4 42 14 42 C14 31.11 14 20.22 14 9 C9.38 9 4.76 9 0 9 C0 6.03 0 3.06 0 0 Z " fill="#003485" transform="translate(330,545)"/>
<path d="M0 0 C3.3 0 6.6 0 10 0 C10 13.86 10 27.72 10 42 C6.7 42 3.4 42 0 42 C0 28.14 0 14.28 0 0 Z " fill="#003385" transform="translate(678,545)"/>
<path d="M0 0 C1.32 0.33 2.64 0.66 4 1 C5.32927923 6.7998123 5.36542765 12.60836126 5.55761719 18.53540039 C5.62399785 20.53235188 5.70253129 22.52888743 5.78125 24.52539062 C6.50612774 45.89862402 6.50612774 45.89862402 3 52 C2.34 52 1.68 52 1 52 C0.33809788 34.66027688 -0.16237009 17.35555901 0 0 Z " fill="#003386" transform="translate(652,434)"/>
<path d="M0 0 C0.99 0.33 1.98 0.66 3 1 C3.14327931 19.36620266 2.78639011 37.65159456 2 56 C0 55 0 55 -1.10839844 51.94604492 C-2.15068837 47.93570242 -2.28902898 43.9890483 -2.265625 39.86328125 C-2.26753845 39.10258835 -2.2694519 38.34189545 -2.27142334 37.55815125 C-2.27277717 35.95551216 -2.26913708 34.35286181 -2.26074219 32.75024414 C-2.25010572 30.33649101 -2.26062604 27.92349479 -2.2734375 25.50976562 C-2.28015393 16.81501506 -1.84790367 8.5397143 0 0 Z " fill="#003385" transform="translate(642,433)"/>
</svg>
